<svg width="12" height="11" viewBox="0 0 12 11" fill="none" xmlns="http://www.w3.org/2000/svg">
<path d="M6.25 1.52588e-05C5.8705 1.52588e-05 5.5625 0.308015 5.5625 0.687515V4.81251H1.4375C1.058 4.81251 0.75 5.12051 0.75 5.50001C0.75 5.87951 1.058 6.18751 1.4375 6.18751H5.5625V10.3125C5.5625 10.692 5.8705 11 6.25 11C6.6295 11 6.9375 10.692 6.9375 10.3125V6.18751H11.0625C11.442 6.18751 11.75 5.87951 11.75 5.50001C11.75 5.12051 11.442 4.81251 11.0625 4.81251H6.9375V0.687515C6.9375 0.308015 6.6295 1.52588e-05 6.25 1.52588e-05Z" fill="#8AB9F6"/>
</svg>
