<svg width="12" height="15" viewBox="0 0 12 15" fill="none" xmlns="http://www.w3.org/2000/svg">
<path fill-rule="evenodd" clip-rule="evenodd" d="M2.8387 3.12497V2.3958C2.8387 1.59007 3.41612 0.937469 4.12902 0.937469H7.99999C8.7129 0.937469 9.29032 1.59007 9.29032 2.3958V3.12497H11.2258C11.5819 3.12497 11.871 3.45164 11.871 3.85414C11.871 4.25664 11.5819 4.5833 11.2258 4.5833H10.5806V12.6041C10.5806 13.8124 9.71419 14.7916 8.64515 14.7916H3.48386C2.41483 14.7916 1.54838 13.8124 1.54838 12.6041V4.5833H0.903218C0.547089 4.5833 0.258057 4.25664 0.258057 3.85414C0.258057 3.45164 0.547089 3.12497 0.903218 3.12497H2.8387ZM4.12902 2.3958H7.99999V3.12497H4.12902V2.3958ZM2.8387 4.5833H9.29032V12.6041C9.29032 13.0066 9.00128 13.3333 8.64515 13.3333H3.48386C3.12773 13.3333 2.8387 13.0066 2.8387 12.6041V4.5833Z" fill="#ED9526"/>
</svg>
