<svg width="12" height="13" viewBox="0 0 12 13" fill="none" xmlns="http://www.w3.org/2000/svg">
<path d="M6.14268 0.484863C2.98422 0.484863 0.400024 3.22568 0.400024 6.57556C0.400024 9.92545 2.98422 12.6663 6.14268 12.6663C7.72191 12.6663 9.18629 12.0115 10.22 10.9L9.18629 9.80363C8.41103 10.6259 7.33428 11.1436 6.12833 11.1436C3.74512 11.1436 1.82133 9.1032 1.82133 6.57556C1.82133 4.04792 3.74512 2.00754 6.12833 2.00754C7.31993 2.00754 8.35361 2.5557 9.12886 3.39317L7.56399 5.05289H11.871V0.484863L10.1625 2.29685C9.12887 1.20052 7.70756 0.484863 6.12833 0.484863H6.14268Z" fill="black"/>
</svg>
